<svg id="Layer_1" data-name="Layer 1" xmlns="http://www.w3.org/2000/svg" viewBox="0 0 441.39 595.25"><defs><style>.cls-1,.cls-2{fill:none;stroke:#1d1d1b;stroke-miterlimit:10;}.cls-1{stroke-width:7px;}.cls-2{stroke-width:3px;}</style></defs><title>hangman</title><line id="vertical_1" class="cls-1" x1="3.5" x2="3.5" y2="591.75"/><line id="horizontal_2" class="cls-1" x1="0.27" y1="3.58" x2="255.94" y2="3.58"/><line id="horizontal_1" class="cls-1" x1="0.15" y1="591.75" x2="441.39" y2="591.75"/><line id="vertical_2" class="cls-1" x1="255.94" x2="255.94" y2="36.65"/><circle id="head" class="cls-1" cx="255.94" cy="77.14" r="40.49"/><ellipse id="body" class="cls-1" cx="255.94" cy="258.12" rx="22.57" ry="137.3"/><line id="arm_1" class="cls-1" x1="233.37" y1="215.21" x2="160.86" y2="157.44"/><line id="arm_2" class="cls-1" x1="278.51" y1="215.21" x2="351.01" y2="157.44"/><g id="leg_1"><line class="cls-1" x1="248.09" y1="386.88" x2="189.33" y2="519.11"/><line class="cls-1" x1="190.91" y1="522.97" x2="167.47" y2="511.25"/></g><g id="leg_2"><line class="cls-1" x1="264.53" y1="384.95" x2="323.29" y2="517.18"/><line class="cls-1" x1="321.7" y1="521.04" x2="345.15" y2="509.32"/></g><g id="face"><line class="cls-2" x1="233.37" y1="58.74" x2="246.72" y2="71.02"/><line class="cls-2" x1="246.72" y1="58.74" x2="233.37" y2="71.02"/><line class="cls-2" x1="265.15" y1="58.74" x2="278.51" y2="71.02"/><line class="cls-2" x1="278.51" y1="58.74" x2="265.15" y2="71.02"/><path class="cls-2" d="M344.77,256.68c0-6.57,7.83-11.91,17.49-11.91s17.49,5.34,17.49,11.91" transform="translate(-104.73 -157.47)"/></g></svg>